<mxfile host="app.diagrams.net" agent="Mozilla/5.0 (Windows NT 10.0; Win64; x64) AppleWebKit/537.36 (KHTML, like Gecko) Chrome/140.0.0.0 Safari/537.36" version="28.2.1">
  <diagram name="PÃ¡gina-1" id="N1HLeGoHMth2gh8DnR0Y">
    <mxGraphModel dx="1426" dy="789" grid="1" gridSize="10" guides="1" tooltips="1" connect="1" arrows="1" fold="1" page="1" pageScale="1" pageWidth="827" pageHeight="1169" math="0" shadow="0">
      <root>
        <mxCell id="0" />
        <mxCell id="1" parent="0" />
        <mxCell id="8c_fUaNgSsVdZdP02EMw-16" style="edgeStyle=orthogonalEdgeStyle;rounded=0;orthogonalLoop=1;jettySize=auto;html=1;entryX=0.5;entryY=0;entryDx=0;entryDy=0;" edge="1" parent="1" source="8c_fUaNgSsVdZdP02EMw-1" target="8c_fUaNgSsVdZdP02EMw-2">
          <mxGeometry relative="1" as="geometry">
            <Array as="points">
              <mxPoint x="380" y="180" />
            </Array>
          </mxGeometry>
        </mxCell>
        <mxCell id="8c_fUaNgSsVdZdP02EMw-1" value="&lt;table border=&quot;1&quot; width=&quot;100%&quot; height=&quot;100%&quot; cellpadding=&quot;4&quot; style=&quot;width:100%;height:100%;border-collapse:collapse;&quot;&gt;&lt;tbody&gt;&lt;tr&gt;&lt;th align=&quot;center&quot;&gt;Cliente&lt;/th&gt;&lt;/tr&gt;&lt;tr&gt;&lt;td align=&quot;center&quot;&gt;- id: int &lt;br&gt;- nome: str&amp;nbsp;&lt;br&gt;&amp;nbsp; - telefone: str&lt;br&gt;&amp;nbsp; - email: str&amp;nbsp; &lt;br&gt;-&amp;nbsp;idade: int&amp;nbsp;&lt;br&gt;&amp;nbsp;- data_cadastro&lt;/td&gt;&lt;/tr&gt;&lt;tr&gt;&lt;td align=&quot;center&quot;&gt;+to_dict()&amp;nbsp; &amp;nbsp;&lt;br&gt;+ __str__()&amp;nbsp;&lt;/td&gt;&lt;/tr&gt;&lt;/tbody&gt;&lt;/table&gt;" style="text;html=1;whiteSpace=wrap;strokeColor=none;fillColor=none;overflow=fill;" vertex="1" parent="1">
          <mxGeometry x="70" y="60" width="180" height="180" as="geometry" />
        </mxCell>
        <mxCell id="8c_fUaNgSsVdZdP02EMw-18" style="edgeStyle=orthogonalEdgeStyle;rounded=0;orthogonalLoop=1;jettySize=auto;html=1;entryX=0;entryY=0.5;entryDx=0;entryDy=0;" edge="1" parent="1" source="8c_fUaNgSsVdZdP02EMw-2" target="8c_fUaNgSsVdZdP02EMw-3">
          <mxGeometry relative="1" as="geometry" />
        </mxCell>
        <mxCell id="8c_fUaNgSsVdZdP02EMw-2" value="&lt;table border=&quot;1&quot; width=&quot;100%&quot; height=&quot;100%&quot; cellpadding=&quot;4&quot; style=&quot;width:100%;height:100%;border-collapse:collapse;&quot;&gt;&lt;tbody&gt;&lt;tr&gt;&lt;th align=&quot;center&quot;&gt;Produto&lt;/th&gt;&lt;/tr&gt;&lt;tr&gt;&lt;td align=&quot;center&quot;&gt;- id: int&amp;nbsp;&lt;br&gt;&amp;nbsp;- nome: str&amp;nbsp; &lt;br&gt;- preco: float&amp;nbsp; &lt;br&gt;&amp;nbsp;- quantidade: int&amp;nbsp; &lt;br&gt;&amp;nbsp;- data_cadastro&lt;/td&gt;&lt;/tr&gt;&lt;tr&gt;&lt;td align=&quot;center&quot;&gt;+ valor_estoque()&amp;nbsp; &lt;br&gt;&amp;nbsp; + to_dict()&amp;nbsp;&lt;br&gt;&amp;nbsp;+ __str__()&lt;/td&gt;&lt;/tr&gt;&lt;/tbody&gt;&lt;/table&gt;" style="text;html=1;whiteSpace=wrap;strokeColor=none;fillColor=none;overflow=fill;" vertex="1" parent="1">
          <mxGeometry x="290" y="250" width="180" height="170" as="geometry" />
        </mxCell>
        <mxCell id="8c_fUaNgSsVdZdP02EMw-13" style="edgeStyle=orthogonalEdgeStyle;rounded=0;orthogonalLoop=1;jettySize=auto;html=1;entryX=0.5;entryY=0;entryDx=0;entryDy=0;" edge="1" parent="1" source="8c_fUaNgSsVdZdP02EMw-3" target="8c_fUaNgSsVdZdP02EMw-9">
          <mxGeometry relative="1" as="geometry" />
        </mxCell>
        <mxCell id="8c_fUaNgSsVdZdP02EMw-3" value="&lt;table border=&quot;1&quot; width=&quot;100%&quot; height=&quot;100%&quot; cellpadding=&quot;4&quot; style=&quot;width:100%;height:100%;border-collapse:collapse;&quot;&gt;&lt;tbody&gt;&lt;tr&gt;&lt;th align=&quot;center&quot;&gt;Venda&lt;/th&gt;&lt;/tr&gt;&lt;tr&gt;&lt;td align=&quot;center&quot;&gt;- id: int&amp;nbsp; &lt;br&gt;- cliente_id: int&amp;nbsp;&lt;br&gt;&amp;nbsp;- produto_id: int&amp;nbsp;&lt;br&gt;&amp;nbsp; - quantidade: int&amp;nbsp;&lt;br&gt;&amp;nbsp;- valor_total: float &lt;br&gt;- data_venda&lt;/td&gt;&lt;/tr&gt;&lt;tr&gt;&lt;td align=&quot;center&quot;&gt;+ calcular_total(preco, float)&lt;br&gt;&amp;nbsp;+ to_dict()&amp;nbsp;&lt;br&gt;&amp;nbsp;+ __str__()&lt;/td&gt;&lt;/tr&gt;&lt;/tbody&gt;&lt;/table&gt;" style="text;html=1;whiteSpace=wrap;strokeColor=none;fillColor=none;overflow=fill;" vertex="1" parent="1">
          <mxGeometry x="530" y="40" width="180" height="180" as="geometry" />
        </mxCell>
        <mxCell id="8c_fUaNgSsVdZdP02EMw-4" value="&lt;table border=&quot;1&quot; width=&quot;100%&quot; height=&quot;100%&quot; cellpadding=&quot;4&quot; style=&quot;width:100%;height:100%;border-collapse:collapse;&quot;&gt;&lt;tbody&gt;&lt;tr&gt;&lt;th align=&quot;center&quot;&gt;CRUDcliente&lt;/th&gt;&lt;/tr&gt;&lt;tr&gt;&lt;td align=&quot;center&quot;&gt;+ inserir(nome:str, telefone:str, email:str, idade:int)&amp;nbsp; &lt;br&gt;+ alterar(id:int, nome:str, telefone:str, email:str, idade:int) -&amp;gt; bool&lt;br&gt;&amp;nbsp;+pesquisar_por_nome(nome:str) -&amp;gt; List[Cliente]&amp;nbsp;&lt;br&gt;&amp;nbsp;+ remover(id:int) -&amp;gt; bool&lt;br&gt;&amp;nbsp;+ listar_todos() -&amp;gt; List[Cliente]&amp;nbsp; + exibir_um(id:int) -&amp;gt; Cliente | None&amp;nbsp;&lt;br&gt;&amp;nbsp;+ relatorio() -&amp;gt; None&lt;/td&gt;&lt;/tr&gt;&lt;tr&gt;&lt;td align=&quot;center&quot;&gt;Section 2.1&lt;br&gt;Section 2.2&lt;br&gt;Section 2.3&lt;/td&gt;&lt;/tr&gt;&lt;/tbody&gt;&lt;/table&gt;" style="text;html=1;whiteSpace=wrap;strokeColor=none;fillColor=none;overflow=fill;" vertex="1" parent="1">
          <mxGeometry x="40" y="460" width="260" height="180" as="geometry" />
        </mxCell>
        <mxCell id="8c_fUaNgSsVdZdP02EMw-7" value="&lt;table border=&quot;1&quot; width=&quot;100%&quot; height=&quot;100%&quot; cellpadding=&quot;4&quot; style=&quot;width:100%;height:100%;border-collapse:collapse;&quot;&gt;&lt;tbody&gt;&lt;tr&gt;&lt;th align=&quot;center&quot;&gt;&lt;span style=&quot;font-weight: normal;&quot;&gt;CRUDproduto&lt;/span&gt;&lt;/th&gt;&lt;/tr&gt;&lt;tr&gt;&lt;td align=&quot;center&quot;&gt;+ inserir(nome:str, preco:float, quantidade:int)&amp;nbsp; &amp;nbsp; &amp;nbsp;&lt;br&gt;&amp;nbsp;+ alterar(id:int, nome:str, preco:float, quantidade:int) -&amp;gt; bool&amp;nbsp; &lt;br&gt;+ pesquisar_por_nome(nome:str) -&amp;gt; List[Produto]&amp;nbsp; &amp;nbsp; &amp;nbsp; &amp;nbsp; &lt;br&gt;&amp;nbsp;+ remover(id:int) -&amp;gt; bool&amp;nbsp; &amp;nbsp; &amp;nbsp; &amp;nbsp; &amp;nbsp; &amp;nbsp;&lt;br&gt;&amp;nbsp;+ listar_todos() -&amp;gt; List[Produto]&amp;nbsp; &amp;nbsp; &amp;nbsp;&lt;br&gt;&amp;nbsp;+ exibir_um(id:int) -&amp;gt; Produto | None &lt;br&gt;+ relatorio() -&amp;gt; None&lt;/td&gt;&lt;/tr&gt;&lt;tr&gt;&lt;td align=&quot;center&quot;&gt;Section 2.1&lt;br&gt;Section 2.2&lt;br&gt;Section 2.3&lt;/td&gt;&lt;/tr&gt;&lt;/tbody&gt;&lt;/table&gt;" style="text;html=1;whiteSpace=wrap;strokeColor=none;fillColor=none;overflow=fill;" vertex="1" parent="1">
          <mxGeometry x="340" y="585" width="240" height="180" as="geometry" />
        </mxCell>
        <mxCell id="8c_fUaNgSsVdZdP02EMw-9" value="&lt;table border=&quot;1&quot; width=&quot;100%&quot; height=&quot;100%&quot; cellpadding=&quot;4&quot; style=&quot;width:100%;height:100%;border-collapse:collapse;&quot;&gt;&lt;tbody&gt;&lt;tr&gt;&lt;th align=&quot;center&quot;&gt;CRUDvendas&lt;/th&gt;&lt;/tr&gt;&lt;tr&gt;&lt;td align=&quot;center&quot;&gt;+ registrar_venda(cliente_id:int, produto_id:int, quantidade:int) -&amp;gt; None &lt;br&gt;+ alterar(id_venda:int, cliente_id:int, produto_id:int, quantidade:int) -&amp;gt; bool&amp;nbsp;&lt;br&gt;&amp;nbsp;+ pesquisar_por_cliente(cliente_id:int) -&amp;gt; List[Venda]&amp;nbsp; &amp;nbsp; &amp;nbsp;&lt;br&gt;+ remover(id_venda:int) -&amp;gt; bool&amp;nbsp; &amp;nbsp; &amp;nbsp; &amp;nbsp; &amp;nbsp; &amp;nbsp; &amp;nbsp; &amp;nbsp; &amp;nbsp; &amp;nbsp; &amp;nbsp; &amp;nbsp; &amp;nbsp; &amp;nbsp; + listar_todos() -&amp;gt; List[Venda]&amp;nbsp; &amp;nbsp; &amp;nbsp; &amp;nbsp; &amp;nbsp; &amp;nbsp; &amp;nbsp; &amp;nbsp; &amp;nbsp; &amp;nbsp; &amp;nbsp; &amp;nbsp; &amp;nbsp; &amp;nbsp; + exibir_um(id_venda:int) -&amp;gt; Venda | None&amp;nbsp; &amp;nbsp; &amp;nbsp;&lt;br&gt;+ relatorio() -&amp;gt; None&lt;/td&gt;&lt;/tr&gt;&lt;tr&gt;&lt;td align=&quot;center&quot;&gt;Section 2.1&lt;br&gt;Section 2.2&lt;br&gt;Section 2.3&lt;/td&gt;&lt;/tr&gt;&lt;/tbody&gt;&lt;/table&gt;" style="text;html=1;whiteSpace=wrap;strokeColor=none;fillColor=none;overflow=fill;" vertex="1" parent="1">
          <mxGeometry x="560" y="340" width="220" height="210" as="geometry" />
        </mxCell>
        <mxCell id="8c_fUaNgSsVdZdP02EMw-11" style="edgeStyle=orthogonalEdgeStyle;rounded=0;orthogonalLoop=1;jettySize=auto;html=1;entryX=0.45;entryY=0.011;entryDx=0;entryDy=0;entryPerimeter=0;" edge="1" parent="1" source="8c_fUaNgSsVdZdP02EMw-1" target="8c_fUaNgSsVdZdP02EMw-4">
          <mxGeometry relative="1" as="geometry" />
        </mxCell>
        <mxCell id="8c_fUaNgSsVdZdP02EMw-12" style="edgeStyle=orthogonalEdgeStyle;rounded=0;orthogonalLoop=1;jettySize=auto;html=1;" edge="1" parent="1" source="8c_fUaNgSsVdZdP02EMw-2">
          <mxGeometry relative="1" as="geometry">
            <mxPoint x="460" y="580" as="targetPoint" />
          </mxGeometry>
        </mxCell>
      </root>
    </mxGraphModel>
  </diagram>
</mxfile>
